<?xml version="1.0" encoding="utf-8"?>

<!DOCTYPE svg PUBLIC "-//W3C//DTD SVG 1.1//EN" "http://www.w3.org/Graphics/SVG/1.1/DTD/svg11.dtd">
<svg version="1.1" id="Layer_1" xmlns="http://www.w3.org/2000/svg" xmlns:xlink="http://www.w3.org/1999/xlink" x="0px" y="0px"
	 viewBox="0 0 1507.904 1725.494" enable-background="new 0 0 1507.904 1725.494" xml:space="preserve">
<path d="M1452.669,867.156c-0.445-1.952,0.364-3.844,0.355-5.784c-1.607-2.7-4.529-12.61-5.244-15.416
	c-8.045-19.734-6.288-12.833-5.805-16.477c-0.166-0.721-8.433-28.53-8.502-28.712c2.526-1.939,4.867-4.114,7.654-5.702
	c-0.8-3.744-3.554-10.963-3.592-11.178c-0.049-0.083-5.812-15.383-5.822-15.416c-0.212-1.124,0.224-3.722-1.738-6.64
	c-0.235-1.67-0.552-3.331-1.079-4.923c-0.689-1.704,0.03-3.566-0.334-5.313c-0.398-1.58-1.755-2.697-2.076-4.294
	c-1.611-4.738,1.553-7.448-2.954-11.293c-0.034-1.117-0.244-2.23-0.903-3.142c-0.009-0.745-0.073-1.524,0.394-2.153
	c0.047-1.31-0.338-2.564-0.458-3.844c-0.51-0.955-1.224-1.764-2.038-2.453c-0.289-1.001-31.954-107.413-32.677-118.861
	c-0.629-8.027-0.925-11.928-5.561-18.348c-3.769-4.94-7.019-23.009-7.513-24.269c-2.667-10.436-5.898-11.859-9.101-15.6
	c-0.686-6.25,9.107-21.817-24.393-50.853c-4.626-4.066-9.236-20.986-10.634-24.303c-0.026-0.21-0.082-0.629-0.107-0.839
	c-0.278-0.428-0.544-0.856-0.796-1.276c-0.013-0.21-0.043-0.634-0.056-0.843c-0.278-0.441-0.544-0.882-0.788-1.314
	c-0.021-0.21-0.06-0.621-0.082-0.831c-0.257-0.432-0.492-0.86-0.71-1.284c-0.141-0.792-0.45-1.533-0.856-2.205
	c-0.465-1.745-1.602-3.92-1.896-5.458c-7.338-12.402-3.283-19.142-15.596-27.381c-1.13-0.552-2.32-1.331-2.586-2.646
	c-4.376-21.205-13.195-22.261-16.486-25.065c-0.813-0.659,0.158-1.614,0.385-2.329c2.21-8.908,3.109-7.201-0.437-14.149
	c-1.211-2.316-2.235-4.773-3.943-6.777c-0.497-0.723-1.246-1.417-1.186-2.354c0.77-11.221-1.113-7.734-2.329-15.279
	c-2.323-9.09-6.716-8.653-4.204-15.365c0.552-1.494-1.109-2.603-1.036-4.058c-1.768-59.328-28.453-52.306-63.135-57.159
	c-1.186-0.653-9.677-7.032-14.983-8.506c-3.69-1.571-8.061-0.792-11.627-2.723c-1.652-0.313-3.185-1.216-4.906-1.015
	c-2.196-0.094-4.221,1.199-6.421,0.856c-0.8-0.835-0.411-2.196-0.458-3.245c0.877-0.115,1.815-0.163,2.637-0.587
	c5.504-2.761,9.368-0.042,12.744-1.023c2.346-0.783,4.91-0.454,7.218-1.404c1.374-0.077,2.757,0.009,4.14,0.163
	c1.071,1.851,7.992-2.193,10.741-1.888c0.265-0.266,0.548-0.531,0.844-0.796c1.096-0.051,2.2-0.068,3.318-0.077
	c-0.017-0.651,0-1.289,0.026-1.931c1.481-0.719,2.984-1.502,4.662-1.669c0.012,0.163,0.03,0.406,0.049,0.652
	c0.2-0.018,0.404-0.03,0.616-0.03c0.168,0,0.329,0.012,0.49,0.024c0.267-0.128,0.55-0.226,0.839-0.311
	c0.153-0.094,0.314-0.18,0.48-0.259c0.143-0.378,0.301-0.753,0.472-1.125c1.541-0.54,3.172-0.668,4.769-0.235
	c-0.12,0.44-0.327,0.834-0.576,1.201c0.204,0.077,0.399,0.165,0.584,0.263c1.239-0.459,2.483-0.744,3.793-0.081
	c0.026-0.176,0.073-0.522,0.099-0.694c1.982-0.214,3.532-1.687,5.527-1.836c0.972-0.009,1.503-0.873,2.042-1.558
	c0.685-0.069,1.374-0.128,2.089-0.18c0.291-0.711,0.736-1.34,1.194-1.961c1.083-0.304,2.179-0.557,3.322-0.659
	c0.351,0.92,0.715,1.849,1.203,2.714c0.719,0.21,1.041-0.103,0.959-0.942c0.608-0.009,1.229-0.021,1.875-0.026
	c1.1-0.955,1.652-2.543,3.095-3.069c7.486-3.783,6.379-5.737,7.192-7.269c0.343,0.06,1.036,0.18,1.383,0.24
	c0.133-0.698,0.291-1.391,0.467-2.081c0.514-0.021,1.044-0.038,1.593-0.056c0.21,0.171,0.634,0.505,0.843,0.677
	c-0.252-0.257-0.766-0.771-1.019-1.023c0.702-0.18,1.434-0.227,2.188-0.141c-0.056-0.355-0.167-1.066-0.223-1.421
	c0.724,0.039,1.473,0.086,2.23,0.124c0.052,0.604,0.098,1.207,0.171,1.815c0.18-0.013,0.54-0.034,0.724-0.047
	c-0.017-0.33-0.047-0.985-0.06-1.31c0.441-0.026,1.332-0.077,1.777-0.103c-0.24-0.073-0.723-0.219-0.967-0.295
	c0.068-0.381,0.201-1.143,0.27-1.528c1.242,0.107,3.095,1.404,3.938-0.06c0.638-1.045,1.027-2.539,2.521-2.586
	c0.167,1.006,0.15,2.038,0.009,3.052c0.39-0.805,0.458-1.699,0.441-2.577c0.835-0.21,1.691-0.317,2.573-0.381
	c0.308-0.595,0.621-1.19,0.946-1.785c0.544,0.107,1.04,0.385,1.426,0.826c0.231-1.481,0.604-2.932,0.925-4.396
	c0.278-0.03,0.835-0.09,1.117-0.12c0.218-2.342,0.278-4.79,1.383-6.927c0.347,0.081,1.049,0.24,1.4,0.317
	c-0.124-0.128-0.368-0.381-0.492-0.51c0.073-0.651,0.158-1.293,0.261-1.939c-0.218-0.642-0.411-1.293-0.569-1.939
	c0.248-0.154,0.745-0.471,0.993-0.625c0-0.574,0.017-1.147,0.047-1.712c0.317,0.081,0.946,0.248,1.263,0.334
	c0.313-2.44-0.616-4.808-0.437-7.26c0.903,0.009,1.43,0.668,1.849,1.4c0.556-1.884,0.231-4.058,1.387-5.732
	c0.41-0.585,2.126-7.213,1.986-8.84c-0.264-2.192,3.171-8.853,2.577-10.955c0.18-0.163,0.544-0.488,0.724-0.651
	c0.129-1.005,3.341-15.565,2.628-20.301c1.34-0.801-0.103-2.56,0.124-3.754c0.638,0.484,1.126,1.139,1.567,1.82
	c-0.334-0.719-0.706-1.456-1.46-1.798c-0.103-0.698-0.265-1.443,0.308-1.999c-0.214-0.591-0.398-1.173-0.582-1.759
	c0.282-1.524-0.167-3.027-0.535-4.491c0.231-0.099,0.694-0.291,0.925-0.39c-1.717-3.289-0.823-12.355-0.175-15.018
	c-0.103-0.604-0.206-1.216-0.257-1.819c3.136-4.779-2.703-26.394-3.241-27.394c0.899-1.781,0.484-3.973-1.049-5.261
	c1.27-3.463-6.646-16.192-6.863-17.192c-0.291-0.026-0.865-0.068-1.156-0.094c-1.122-1.151-2.376-2.192-3.279-3.523
	c-1.738-0.642-2.496-2.406-2.838-4.088c1.53,0.649,5.345,4.706,6.1,5.706c-1.434-2.748-3.442-5.24-6.092-6.888
	c-1.798-1.002-2.273-3.485-4.23-4.153c-0.09-0.171-0.265-0.522-0.351-0.694c-0.749-0.325-1.417-0.813-2.188-1.032
	c0.043-0.103,0.133-0.308,0.18-0.411c-2.218-1.07-4.333-2.333-6.486-3.515c-1.088-0.208-12.612-4.795-14.752-5.317
	c-2.2,0.164-11.366-1.758-11.537-1.725c-2.179-0.389-4.452,0.616-6.524-0.291c-0.12,0.171-0.351,0.522-0.471,0.698
	c-0.822,0.086-1.627,0.193-2.41,0.33c-0.201-0.214-0.608-0.646-0.809-0.86c-1.006,0.522-2.046,0.942-3.087,1.357
	c-0.993,1.259-2.851,0.741-4.088,1.644c-2.188,0.531-3.917,2.038-5.963,2.868c-0.094-0.3-0.283-0.895-0.381-1.194
	c-0.227,0.398-0.441,0.796-0.642,1.194c-1.69,0.181-6.348,2.621-6.421,4.435c-1.293,0.407-2.128,1.49-3.129,2.312
	c-0.672,1.01-1.58,1.811-2.603,2.436c-0.099,0.514-0.18,1.023-0.248,1.541c-0.261,0.608-0.488,1.233-0.685,1.862
	c-0.659,0.497-1.1,1.139-1.066,1.995c-0.852,0.783-1.259-0.385-1.657-0.938c0.227,0.552,0.569,1.07,0.629,1.682
	c-0.18,1.049-1.04,1.785-1.858,2.363c-0.21,0.484-0.402,0.972-0.591,1.456c0.004,0.313,0.013,0.938,0.013,1.25
	c-1.588,1.691-3.99,1.267-6.057,1.532c-5.655,0.762-25.797,3.562-30.211,4.234c-3.985,0.692-10.002,4.656-12.792,4.058
	c-7.912-1.967-32.301-21.899-30.823,7.012c-1.07,1.567-1.34,3.682-2.963,4.837c-5.576,4.15-9.773,4.384-12.085,7.59
	c-0.916,0.877-1.182,2.569-2.586,2.791c-1.867,0.249-3.463,1.383-4.542,2.881c-0.368,1.126,0.219,2.646-0.83,3.502
	c-1.139,0.698-2.543,0.955-3.442,1.999c-3.986,1.357-6.404,5.047-9.414,7.749c-6.915,0.823-10.11,3.192-10.899,4.195
	c-0.963,1.892-2.74,3.438-2.804,5.694c-0.287,0.625-0.561,1.25-0.844,1.871c-0.158,6.496,1.555,15.477,5.377,20.433
	c11.316,21.072,11.801,14.729,10.754,29.68c-2.151,7.005-6.418,9.555-9.709,24.38c-0.197,1.18-6.162,14.126-7.616,16.392
	c-0.445,1.764-1.353,3.433-1.4,5.274c-3.551-0.737-8.074,3.956-10.377,5.548c-4.389,6.99-2.393,2.311-8.198,9.675
	c-6.346,8.932-8.464,7.727-11.841,10.865c-1.203-0.133-2.372-0.407-3.45-0.938c-1.443-0.026-2.864-0.347-4.071-1.139
	c-1.598,0.261-0.159,0.361-7.218-1.862c-6.909-0.176-7.012-1.377-18.361-0.809c-2.663,0.899-5.467,0.719-8.224,0.771
	c-1.527,0.481-15.948,3.416-20.168,6.284c-2.29,1.348-3.99,3.493-6.319,4.782c-10.822,6.166-12.059,9.812-16.208,13.669
	c-23.973,4.913-51.251,14.53-55.682,14.033c-5.314-2.69-10.354-10.275-18.344,5.839c-2.696,5.869-14.795-5.207-28.884-5.12
	c-14.362-12.971,10.531-9.107,0.18-44.698c-1.605-6.107-10.17-5.911-13.596-5.24c-7.262,1.291-6.143-6.054-12.548-6.55
	c-3.502-0.715-6.344,1.837-9.465,2.868c-4.251,1.365-8.442-2.119-12.685-0.685c-10.181,3.334-13.053,0.524-18.567,3.288
	c-2.367,1.16-3.617,3.574-5.347,5.428c-0.253,1.627-2.102,2.282-2.727,3.746c-1.387,1.301-2.209,3.052-3.523,4.409
	c-1.563,1.404-1.537,3.677-2.346,5.492c-0.163,0.141-0.484,0.424-0.646,0.565c0,0-0.88,1.805-3.057,7.218
	c-0.377-0.098-0.745-0.197-1.104-0.287c-33.791,12.529-35.469,27.559-40.819,34.98c-0.844,2.069-6.166,8.942-6.862,10.78
	c-0.251,1.334,2.569,2.153,7.856,7.594c1.015,1.062-0.12,2.594,0.24,3.849c0.458,0.745,1.04,1.408,1.554,2.127
	c-2.463,8.237,0.537,13.226,7.35,22.141c4.434,6.25,14.269,9.932,17.86,12.522c10.15,7.768,12.809,3.714,24.577,10.471
	c3.827,2.109,7.761-2.478,12.111-2.753c14.352,3.833,37.109,3.985,38.109,3.96c2.239,0.251,66.556,8.643,67.601,9.966
	c0,0-15.703,69.561-16.358,73.958c-1.308,12.441,3.929-6.096-6.182,28.438c-0.18,0.89-0.462,1.764-0.873,2.577
	c-0.122,1-10.411,39.945-10.45,55.438c-0.356,2.217-3.164,22.563-3.074,24.727c-0.811,3.259-5.465,64.265-5.441,65.13
	c-0.206,0.068-0.616,0.214-0.822,0.282c-10.138-1.849-33.691-2.602-47.472-3.108c-1.631-0.073-3.142-0.74-4.739-0.95
	c-70.89-4.119-104.354,1.652-105.354,1.708c-110.663,6.756-93.159-10.584-144.992,42.031c-12.296,15.233-6.265,12.914-14.072,18.828
	c-5.204,3.671-10.562,8.257-14.782,14.02c-26.85,32.813,20.636-16.116-80.105,68.799c-1.209,1.334-26.402,23.524-26.854,23.798
	c-0.377-0.343-0.745-0.676-1.113-1.002c-3.164,3.626-7.008,6.524-10.642,9.636c-26.185,21.716-13.649,14.577-15.972,19.166
	c-0.748,1.202-26.051,24.618-43.323,36.718c-38.731,29.946-92.873,51.392-112.559,48.139c-0.415-0.544-0.822-1.057-1.25-1.567
	c0.214,0.42,0.646,1.263,0.861,1.682c-4.098-0.169-57.326-4.861-60.066-3.823c-4.217,1.486-31.202-1.574-56.547-21.662
	c-12.023-8.259-28.455-7.969-35.142-2.77c-1.541,1.19-3.125,2.333-4.748,3.412c-1.4,0.895-2.175,2.547-3.75,3.202
	c0,0.171,0.004,0.509,0.004,0.676c-1.147-0.017-2.294-0.026-3.442-0.056c-0.047,0.227-0.137,0.676-0.184,0.903
	c-0.334,0.051-1.01,0.154-1.344,0.205c-0.86-0.497-1.764-0.907-2.693-1.237c-2.851,1.541-4.872,4.212-6.67,6.837
	c-3.547,9.622,111.528,95.562,122.504,101.48c1.687,1.113,3.737,1.738,5.073,3.335c4.191,1.464,8.04,3.69,11.858,5.921
	c0.903,0.514-0.458,0.938-0.801,1.297c0.608,1.447-1.07,2.401-1.755,3.485c-2.543,2.354-2.393,6.092-4.024,8.977
	c8.515,6.929,33.333,32.802,43.884,37.099c6.219,5.09,21.987,17.922,29.029,21.396c0.831-1.494,1.918-2.817,3.172-3.969v-0.959
	c0.502-0.468,4.662-5.352,5.707-6.901c0.475-0.004,0.955,0.017,1.438,0.056c2.584-4.005-0.507-0.861,5.201-7.226
	c0.997-0.043,1.747-0.616,2.055-1.554c0.445-0.103,1.434,0.471,1.306-0.398c-1.058-5.379-2.011-2.656-2.196-6.995
	c9.049-3.182,25.185-23.31,35.194-48.55c1.563-4.943,0.679-2.034-3.553-6.884c2.396-7.917,6.029-11.873,8.412-15.634
	c1.771-1.02,13.396-13.023,16.182-15.009c27.383-25.163,44.406-32.275,51.41-37.188c0.235-0.047,0.715-0.146,0.955-0.193
	c0.492-0.616,9.106-5.228,9.808-5.587c0.171-0.158,0.509-0.48,0.681-0.642c1-0.538,8.898-4.83,9.945-5.625
	c0.912-0.359,1.794-0.852,2.222-1.781c0.749-0.141,1.824,0.167,2.089-0.796c0.587-0.115,1.126-0.317,1.263-0.968
	c0.21-0.017,0.638-0.056,0.852-0.077c0.695-0.568,9.564-5.552,10.767-5.985c1.327-1.229,3.078-1.776,4.671-2.556
	c1.23-1.187,7.35-3.742,8.583-4.927c0.535-0.026,1.083-0.026,1.635-0.013c0.909,1.7,6.21,8.673,7.046,9.675
	c1.318,2.012,17.299-13.406,29.62-20.934c-0.017-0.561-0.026-1.104-0.026-1.639c71.684-40.56,79.101-60.852,123.561-90.238
	c7.502-4.767,20.5-14.549,21.067-23.4c-0.06-1.426-1.015-2.556-1.507-3.827c-0.424-1.64-0.762-3.296-1.083-4.953
	c3.308-2.378,2.208-2.366,9.512,4.127c0.081,1.267-0.424,3.039,0.95,3.793c8.015,4.596,30.834-0.892,38.285-0.792
	c0.313-0.351,0.634-0.694,0.963-1.023c0.047-0.24,0.141-0.715,0.188-0.95c0.27-0.115,0.818-0.343,1.092-0.454
	c92.721,19.646,120.133,18.845,163.147,22.929c1.31-0.013,2.616,0.18,3.836,0.702c0,0-0.73,12.478-1.896,18.442
	c-6.298,52.072-1.472,32.839-3.767,56.256c-1.41,7.838-2.682,23.524-1.438,31.534c4.518,22.762,1.368,18.276,2.038,43.4
	c1.456,8.477,0.054,19.941-0.946,31.653c-0.099,0.193-0.3,0.582-0.398,0.779c1.427,3.685-2.397,15.857,6.032,33.922
	c0.788,1.627,0.073,3.48,0.116,5.214c-1.554,24.025-0.981,27.843-0.437,35.459c-3.849,73.468-2.852,64.226,8.857,89.395
	c3.017,14.096-0.207,16.475,14.881,40.014c0,0,1.911,9.101,7.86,26.799c10.1,31.773,2.984,33.076,27.895,95.35
	c0.516,1.371,12.505,32.64,14.422,36.902c-1.19,3.474-0.414-0.872,9.615,25.549c1.828,4.345,3.258,8.853,5.441,13.053
	c1.306-0.128,2.633-0.21,3.951-0.026c8.436,27.419,35.427,99.736,16.345,132.907c-1.763,0.183,0.048-1.336-6.451,11.571
	c-1.167,1.275-6.689,10.789-7.423,12.333c-0.394,1.006-1.571,1.092-2.453,1.417c-0.15,0.158-0.445,0.479-0.595,0.638
	c-0.034,0.599-0.052,1.224-0.06,1.875c-1.096,0.711-1.593,1.978-2.38,2.98c-0.043,0.214-0.128,0.642-0.167,0.856
	c-0.762,0.33-1.413,0.843-1.931,1.494c-0.364-0.038-1.087-0.124-1.451-0.163c0.659,0.634,1.379,1.22,2.106,1.819
	c-1.237,1.379-2.277,3.283-4.294,3.566c-1.541,0.342-2.928,1.194-3.866,2.474c1.293-0.676,2.586-1.387,4.05-1.627
	c-1.605,2.916-3.786,4.448-9.405,12.569c-0.877-0.021-1.301,0.454-1.267,1.331c-0.646,0.064-1.28,0.18-1.875,0.398
	c0.33,0.467,0.693,1.036,0.967,1.601c-6.37,2.74-4.313,7.366-8.386,9.041c0.004,0.116,0.013,0.343,0.017,0.458
	c-1.348,0.531-2.042,1.961-3.408,2.449c-0.009,0.124-0.021,0.373-0.03,0.497c-2.385,1.267-4.486,2.997-6.695,4.546
	c1.982-0.993,3.472-2.842,5.651-3.45c0.535,0.45,1.113,0.861,1.742,1.246c-4.919,3.486-23.651,16.4-30.292,16.863
	c-2.52,1.726-21.116,4.437-32.017,4.349c0.86,0.12,1.725,0.223,2.603,0.36c-0.03,0.612-0.047,1.246-0.06,1.905
	c-2.843,0.073-5.694-0.347-8.519,0.056c1.01,0.188,2.025,0.325,3.052,0.522c-0.009,0.291-0.026,0.865-0.034,1.152
	c-0.638,0.021-1.263,0.069-1.871,0.15c-0.437,0.646-1.087,1.096-1.691,1.584c-0.762-0.009-1.52,0.004-2.265,0.034
	c-0.638,1.986-2.286,3.313-3.887,4.521c-0.882,2.055-1.34,4.38-2.992,6.032c-0.175,0.642-0.351,1.306-0.531,1.974
	c0.133,0.351,0.274,0.719,0.428,1.113c-2.19,5.548-0.886,6.031-0.715,8.485c0.253,0.634,0.552,1.271,0.925,1.884
	c-0.578,0.822-1.314,1.507-2.128,2.106c-0.048,2.586,0.834,1.617-3.339,3.189c-0.313,0.719-0.719,1.413-1.173,2.076
	c-0.097,1.422,0.314,9.339,1.849,10.013c0.081-0.261,0.244-0.779,0.321-1.036c0.06,0.252,0.175,0.766,0.231,1.023
	c12.248,0.015,12.365,0.272,12.603-0.728c3.069-0.223,6.152-0.086,9.23-0.137c0.009-0.184,0.021-0.548,0.03-0.732
	c2.838-0.171,5.685-0.099,8.536-0.124c0.004-0.18,0.021-0.548,0.026-0.732c1.978-0.107,3.96-0.137,5.946-0.12
	c0.017-0.18,0.052-0.548,0.064-0.732c2.466-0.154,4.936-0.116,7.406-0.099c0.609,0.023,15-1.975,15.459-2.517
	c1.888-0.086,3.78-0.073,5.677-0.171c0.009-0.18,0.03-0.539,0.043-0.719c1.344-0.06,2.723,0.047,4.058-0.218
	c0.107-0.158,0.321-0.467,0.432-0.625c4.959-0.227,5.224,0.327,6.032-0.843c1.926-0.394,4.486,0.685,6.01-0.826
	c0.997-0.081,2.038-0.043,3.018-0.347c2.145-1.079,4.602-0.163,6.811-0.856c1.066-0.407,2.183-0.655,3.326-0.753
	c0.116-0.163,0.338-0.492,0.45-0.655c1.408-0.257,3.369,0.492,4.379-0.822c15.668-1.906,28.32-6.442,31.234-7.303
	c0.248,0,0.749-0.004,0.997-0.009c0.146-0.205,0.437-0.616,0.582-0.822c0.955-0.081,1.892-0.33,2.68-0.907
	c0.261,0.013,0.779,0.03,1.04,0.043c0.146-0.214,0.445-0.638,0.591-0.848c0.972-0.077,1.892-0.394,2.753-0.856
	c0.244-0.017,0.736-0.047,0.985-0.064c0.158-0.214,0.479-0.642,0.642-0.856c0.278,0.009,0.843,0.021,1.121,0.026
	c0.124-0.218,0.373-0.655,0.497-0.873c0.304-0.009,0.912-0.026,1.216-0.034c0.163-0.184,0.488-0.552,0.651-0.736
	c2.219-0.408,11.796-5.41,12.796-5.993c0.18-0.043,0.539-0.129,0.719-0.167c0.625-0.415,1.31-0.736,2.055-0.878
	c0.171-0.176,0.509-0.526,0.676-0.698c0.235-0.03,0.702-0.09,0.933-0.12c0.514-0.484,1.13-0.809,1.837-0.903
	c0.163-0.171,0.488-0.514,0.646-0.689c0.24-0.03,0.719-0.09,0.959-0.12c1.325-1.137,14.077-6.123,17.051-7.021
	c-0.877,0.052-1.747,0.133-2.607,0.193c2.804-0.338,5.552-1.117,8.108-2.333c1.948-0.454,3.977-0.557,5.874-1.259
	c0.009,1.404-0.034,2.821,0.004,4.242c0.013,1.695,0.86,3.241,0.92,4.949c0.788,0.009,1.575,0.017,2.389,0.056
	c0.081,0.848,0.188,1.704,0.33,2.581c7.358-0.369,19.813-2.786,20.403-3.078c1.413-0.274,2.855-0.36,4.29-0.561
	c0.833-0.391,7.904-1.545,9.431-1.7c1.563-0.98,3.506-0.36,5.107-1.156c30.308-5.799,36.207-6.337,38.713-7.958
	c-0.004-0.397-3.283-18.427-3.408-18.622c-0.437-2.855-0.728-5.728-1.096-8.579c-0.522-0.509-1.156-0.899-1.408-1.58
	c-1.152-0.081-2.307,0.004-3.433-0.141c-0.621-0.428-1.169-0.912-1.824-1.229c-0.278-0.501-0.544-1.006-0.779-1.473
	c0.749-2.47,1.207-5.099,0.771-7.659c-0.36,0.116-1.079,0.343-1.438,0.458c0.882-1.19,0.719-2.658,0.574-4.024
	c-0.244-0.004-0.732-0.009-0.976-0.013c0.128-0.591,0.702-1.224,0.24-1.768c-0.261-0.616-1.044-1.147-0.54-1.802
	c0.724-1.13,0.33-2.44-0.419-3.412c-0.651-2.081-0.223-4.392-1.344-6.314c-0.967-1.965-0.552-4.401-1.986-6.156
	c-0.882-1.974-1.01-4.298-2.449-5.976c-0.419-1-2.895-9.422-4.906-10.343c-0.039-0.218-0.107-0.651-0.142-0.865
	c0.206-0.287,0.612-0.86,0.813-1.147c-0.342,0.004-1.027,0.013-1.374,0.017c0.334-0.582,0.685-1.147,1.062-1.682
	c-0.372,0.09-1.113,0.266-1.485,0.355c-0.988-3.136-2.11-7.53-4.307-7.761c-0.253-0.39-0.492-0.762-0.715-1.117
	c-1.143,0.535-2.281,1.152-3.562,1.246c0.137-0.796,0.677-1.327,1.263-1.798c0.013-0.664,0.03-1.319,0.077-1.935
	c-0.595-1.105-6.433-6.271-7.034-8.613c0,0-11.044-25.324-11.045-25.326c-2.444-5.983-24.1-69.948-28.524-89.254
	c0-0.001-7.979-29.726-7.98-29.727c-0.289-2.437,6.789-4.418,10.587-9.435c0.116-1.807,0.355-3.639,0.077-5.424
	c-0.391-1.001-9.651-21.87-10.36-32.497c-0.753-0.758-1.704-1.477-1.764-2.62c-1.156-6.289-3.48-12.269-4.919-18.485
	c-11.894-48.345-22.291-66.592-28.986-85.812c-0.959-3.403-0.398-6.995-1.156-10.424c-5.851-30.49-1.355-15.492-11.94-40.712
	c-2.151-4.217,0.684-13.544,0.424-19.243c-0.32-8.399,1.305,0.037-1.507-26.897c-2.162-9.61,0.641-18.398-7.894-29.804
	c-0.329-8.998,2.635-1.32-0.013-11.306c-0.227-1.747,0.625-3.343,1.036-4.983c4.407-19.442,2.917-12.748,3.271-24.808
	c6.444-3.627,4.668-14.562,4.384-15.685c-1.421-5.054,9.192-16.444,7.958-29.92c-0.39-2.821,1.019-5.403,1.417-8.13
	c4.232-25.227,6.541-27.782,8.258-44.775c0.437-2.252,0.175-4.598,0.886-6.794c-0.262-2.528,3.183-15.714,5.287-25.467
	c1.349-2.74,4.435-4.842,4.341-8.177c0.193-1.584-0.908-2.834-1.319-4.26c0.187-1.053,7.393-19.615,8.305-29.898
	c5.354-5.774,1.294-13.093,5.531-18.383c1.661-0.321,3.301,0.612,4.983,0.287c0.852-0.167,1.434-1.271,0.852-1.991
	c-0.646-1.61-2.791-2.051-3.129-3.802c1.327-1.212,3.198-1.199,4.76-1.922c5.412-2.333,4.836-7.106,7.552-8.712
	c2.736-1.614,4.898-4.041,6.623-6.674c2.282-2.688,5.163-4.838,7.282-7.68c1.238-1.914,5.94-2.706,8.523-6.901
	c10.656-16.341,14.24-16.611,20.853-26.987c1.394,0.12,7.139,3.059,13.934,2.65c32.491,3.878,35.5-3.073,69.805-0.351
	c1,0.083,24.152-0.925,28.186-1.905c0,0-4.734-100.157-4.961-113.57c0.424-0.633,1.001-1.143,1.554-1.669
	c0.031-1-0.246-20.633-2.342-28.742c1.143-1.524,0.501-3.378-0.163-4.94c1.336-6.53-2.851-45.074-0.689-55.344
	c0.615-3.315,3.355-65.356,9.521-80.097c0.029-0.232,2.281-7.399,2.354-7.654c4.315-13.97,11.521-12.94,18.528-30.909
	c1.216-3.364,5.941-5.567,8.022-10.3c0.771-1.528,1.802-3.262,3.57-3.733c6.2,10.092,6.309,15.716,16.769,25.485
	c6.061,6.26,10.214,29.444,21.679,39.53c9.339,9.505,2.222,0.137,13.665,21.037c9.824,20.926,19.636,28.92,28.742,54.998
	c1.542,7.359,14.585,27.829,15.377,34.475c1.479,7.298,4.618,7.616,9.448,23.849c0.898,5.309,8.688,23.483,9.157,24.483
	c0.03,0.206,0.09,0.616,0.115,0.822c1.991,3.802,3.121,7.988,5.146,11.777c2.968,6.037,4.499,5.781,10.934,25.921
	c0.273,1.001,3.958,12.843,5.206,15.407c0.417,2.504,4.974,13.031,5.261,14.564c8.098,15.579,14.589,57.995,17.329,66.667
	c0.698,0.338,1.408,0.711,2.123,1.083c0.286,8.208,0.072,4.086,0.056,7.333c1.126,1.978,0.826,4.315,0.861,6.498l0.227,0.347
	c-0.248,3.061,0.976,5.972,0.835,9.05c0.257,1.571-0.676,3.806,1.045,4.748c-1.195,8.656-6.696,23.494-7.089,25.232
	c-2.544,8.133,0.281,11.9,1.006,17.509c0.025,0.304,2.372,14.096,2.688,14.958c1.26,4.987-2.06,4.917,4.088,12.376
	c2.269,2.813,5.167,5.201,6.884,8.421c0.351,4.452,2.517,8.442,4.64,12.282c4.956,2.546,8.382-5.092,8.061-10.647
	c0.197-0.231,0.599-0.694,0.796-0.92c15.389,12.487,17.82-1.3,19.658-3.814c3.272,2.921,10.271,2.479,14.534-6.314
	c0.587-1.652,1.271-3.266,1.884-4.906c6.687-1.195,10.518-7.234,13.301-13.292c1.533-0.411,3.271-0.634,4.414-1.871
	c1.815-1.939,4.345-3.057,5.972-5.184C1449.688,877.945,1454.588,876.645,1452.669,867.156z"/>
</svg>
